PathFileType	4	(X/Y/Z)	C:/Users/labor/Downloads/static_updated_hjc.trc	
DataRate	CameraRate	NumFrames	NumMarkers	Units	OrigDataRate	OrigDataStartFrame	OrigNumFrames	
200.00	200.00	5	69	mm	200.00	274	175	
Frame#	Time	FHD			LBHD			RBHD			RBAR			LBAR			RASI			RSACR			LSACR			LASI			USACR			C7			CLAV			T10			RSHO			LSHO			LTHI1			LTHI3			LTHI2			LTHI4			LLFC			LMFC			LTIB1			LTIB2			LTIB3			LTIB4			LMMAL			LLMAL			LHEE			LMT1			LMT5			LMT3			RTHI1			RTHI2			RTHI3			RTHI4			RLFC			RMFC			RTIB1			RTIB3			RTIB2			RTIB4			RLMAL			RMMAL			RHEE			RMT5			RMT1			RMT3			LMEP			LLEP			LDUPA			LMUPA			LUUPA			LUL			LRAD			LRFIN			RUL			RRAD			RUFIN			RMEP			RLEP			RMUPA			RDUPA			RUUPA			LAJC			RAJC			LKJC			RKJC			RHJC			LHJC			
		X1	Y1	Z1	X2	Y2	Z2	X3	Y3	Z3	X4	Y4	Z4	X5	Y5	Z5	X6	Y6	Z6	X7	Y7	Z7	X8	Y8	Z8	X9	Y9	Z9	X10	Y10	Z10	X11	Y11	Z11	X12	Y12	Z12	X13	Y13	Z13	X14	Y14	Z14	X15	Y15	Z15	X16	Y16	Z16	X17	Y17	Z17	X18	Y18	Z18	X19	Y19	Z19	X20	Y20	Z20	X21	Y21	Z21	X22	Y22	Z22	X23	Y23	Z23	X24	Y24	Z24	X25	Y25	Z25	X26	Y26	Z26	X27	Y27	Z27	X28	Y28	Z28	X29	Y29	Z29	X30	Y30	Z30	X31	Y31	Z31	X32	Y32	Z32	X33	Y33	Z33	X34	Y34	Z34	X35	Y35	Z35	X36	Y36	Z36	X37	Y37	Z37	X38	Y38	Z38	X39	Y39	Z39	X40	Y40	Z40	X41	Y41	Z41	X42	Y42	Z42	X43	Y43	Z43	X44	Y44	Z44	X45	Y45	Z45	X46	Y46	Z46	X47	Y47	Z47	X48	Y48	Z48	X49	Y49	Z49	X50	Y50	Z50	X51	Y51	Z51	X52	Y52	Z52	X53	Y53	Z53	X54	Y54	Z54	X55	Y55	Z55	X56	Y56	Z56	X57	Y57	Z57	X58	Y58	Z58	X59	Y59	Z59	X60	Y60	Z60	X61	Y61	Z61	X62	Y62	Z62	X63	Y63	Z63	X64	Y64	Z64	X65	Y65	Z65	X66	Y66	Z66	X67	Y67	Z67	X68	Y68	Z68	X69	Y69	Z69	

110	0.545	116.49928	930.76135	1728.77502	286.00995	852.79895	1696.50806	241.67731	1005.80194	1725.36975	2013.74927	2007.87146	28.05716	1903.38196	-212.65875	23.72100	156.45041	1062.49817	969.78821	346.02109	958.51538	977.16486	343.59015	916.20190	973.09174	151.44075	813.28326	974.04620	336.70181	933.43347	985.81000	319.31967	924.60144	1480.67847	163.03735	925.11499	1432.29443	331.20163	934.62799	1169.24878	298.92087	1086.23865	1467.23230	285.47998	764.04034	1461.19983	220.58084	732.63019	813.38660	187.94055	732.67010	790.63519	235.18051	724.23712	774.38947	190.03284	724.34064	726.24103	260.32150	743.25671	499.32938	235.26753	847.79761	469.64749	319.22083	731.09961	416.50330	295.47769	714.76868	378.05267	342.59232	727.92163	366.63943	308.72357	709.86426	313.81589	251.67799	822.45819	96.94486	282.05942	736.71393	76.69337	331.20090	786.22003	35.49900	111.26801	775.06506	41.02626	155.16635	703.80750	29.48788	128.85645	724.66083	33.42744	207.50700	1143.42480	817.29156	208.22906	1148.60217	784.58600	160.99792	1130.42114	781.60376	187.46832	1146.06982	721.68701	255.21581	1124.50159	500.66919	241.73900	1003.06873	482.84042	306.01553	1136.81384	433.07919	339.29245	1142.52966	382.92099	289.06064	1154.44348	385.64420	311.92728	1155.53357	323.85446	287.91431	1132.22766	82.88444	248.69489	1049.70398	100.28863	328.37189	1073.69641	33.23973	172.45398	1181.86340	28.92273	119.20879	1119.17236	45.82183	130.73555	1159.87329	35.02946	213.80432	502.80615	1296.02002	272.12927	489.59729	1394.66113	304.78781	564.09595	1388.37634	323.40118	623.04034	1381.05090	297.35703	635.55811	1421.84949	226.19453	232.77287	1363.89246	167.58160	247.62117	1341.53406	156.95622	153.46059	1351.58887	245.93939	1608.01636	1395.37695	195.78006	1592.69702	1400.22119	180.10851	1697.74817	1400.00378	231.95584	1358.05774	1299.24695	283.36151	1363.55859	1401.65625	320.44254	1267.16638	1399.74817	285.42822	1284.52881	1431.45239	314.38971	1210.25757	1424.93799	266.86871	779.58606	86.81911	268.30460	1090.96582	91.58653	247.79452	795.52716	484.48843	248.47740	1063.78516	491.75481	246.57611	997.96582	977.79910	244.07128	873.35837	979.92810 
111	0.550	116.51260	930.78937	1728.78955	286.02356	852.81317	1696.50964	241.68552	1005.82990	1725.36133	2013.77600	2007.87500	28.04489	1903.43335	-212.50801	23.62382	156.44273	1062.51599	969.78552	346.01538	958.52386	977.15662	343.56177	916.22052	973.07214	151.43648	813.29175	974.02966	336.53247	933.38275	985.71509	319.33539	924.59363	1480.68250	163.02898	925.12384	1432.29077	331.18793	934.61157	1169.23401	298.92935	1086.23877	1467.21863	285.45328	764.04053	1461.19788	220.56451	732.64386	813.37720	187.93289	732.68317	790.62244	235.17572	724.24664	774.39771	190.00459	724.35669	726.22968	260.31558	743.26855	499.33121	235.24629	847.81818	469.64694	319.23462	731.10126	416.50119	295.47174	714.77081	378.05539	342.60004	727.94843	366.61200	308.73636	709.85651	313.81604	251.64748	822.73059	97.06367	282.04037	736.73938	76.69758	331.20316	786.22119	35.50102	111.26298	775.07202	41.02180	155.16241	703.81207	29.48660	128.81271	724.56848	33.58140	207.49069	1143.44019	817.29382	208.25072	1148.61987	784.54114	160.98796	1130.44202	781.60187	187.47522	1146.09436	721.68073	255.22050	1124.50671	500.66690	241.73396	1003.08270	482.84622	306.02411	1136.81384	433.07770	339.28903	1142.52051	382.92923	289.06403	1154.42175	385.62665	311.93573	1155.53979	323.85742	287.91418	1132.22339	82.88616	248.69441	1049.70923	100.28483	328.36499	1073.70557	33.22521	172.46570	1181.86230	28.90547	119.20635	1119.17126	45.82204	130.74016	1159.86475	35.00843				272.10275	489.60419	1394.64417	304.73544	564.09082	1388.35815	323.38312	623.03821	1381.05200	297.32230	635.54425	1421.84497	226.22588	232.77628	1363.83899	167.60544	247.61745	1341.47876	157.25272	153.45233	1351.35132	245.98003	1608.02417	1395.39795	195.82445	1592.70544	1400.24963	180.15866	1697.76355	1400.03320	232.06073	1358.01477	1298.99915	283.36105	1363.55286	1401.64221	320.43210	1267.16309	1399.73987	285.43298	1284.51807	1431.45728	314.37842	1210.25745	1424.93201	266.84393	779.73499	86.88063	268.30430	1090.96631	91.58549	247.78094	795.54337	484.48907	248.47723	1063.79471	491.75656	246.48760	997.94937	977.75031	243.98447	873.33725	979.87238 
112	0.555	116.53245	930.83582	1728.80652	286.03113	852.83496	1696.51184	241.71054	1005.84698	1725.35840	2013.75635	2007.88696	28.07310	1903.40674	-212.56752	23.66707	156.43134	1062.53491	969.78320	346.01254	958.53247	977.16199	343.55807	916.22437	973.08698	151.40298	813.31610	974.01495	336.51059	933.39233	985.71216	319.34863	924.59930	1480.66699	163.01903	925.12292	1432.28564	331.17953	934.58942	1169.23999	298.93005	1086.23059	1467.20667	285.43384	764.03790	1461.19470	220.55273	732.65839	813.38586	187.89859	732.69910	790.65399	235.22050	724.21075	774.43488	190.01411	724.37408	726.23199	260.31189	743.27081	499.32819	235.51492	847.56671	469.60159	319.22510	731.10162	416.50684	295.46634	714.78271	378.06506	342.60583	727.89172	366.66681	308.71121	709.85229	313.83963	251.63988	822.52704	96.95184	282.04501	736.72211	76.68723	331.19833	786.22925	35.50046	111.26472	775.07068	41.02531	155.16638	703.82587	29.48758	128.81612	724.58112	33.57659	207.48907	1143.45361	817.28882	208.01910	1148.98523	784.87189	160.97247	1130.46558	781.59363	187.46370	1146.10339	721.67285	255.23015	1124.51086	500.66309	241.72993	1003.09644	482.84933	306.03546	1136.81970	433.07339	339.29843	1142.52295	382.92758	289.09195	1154.43286	385.63522	311.95447	1155.52722	323.84747	287.91760	1132.22632	82.88582	248.70378	1049.70520	100.28285	328.37079	1073.69958	33.23794	172.46628	1181.86401	28.89832	119.20699	1119.16479	45.82421	130.74858	1159.86365	35.01013	214.02243	501.36108	1295.50293	272.06378	489.62595	1394.59021	304.70242	564.08612	1388.33643	323.35938	623.03210	1381.04358	297.29712	635.54144	1421.83936	226.25436	232.77324	1363.78564	167.63400	247.60916	1341.42297	157.41342	153.64328	1351.36267	246.02718	1608.02502	1395.39856	195.87199	1592.70911	1400.27490	180.24977	1697.76306	1400.07031	231.98373	1357.99561	1299.06372	283.19458	1363.45508	1401.43469	320.43246	1267.15515	1399.73621	285.43848	1284.51782	1431.46924	314.38306	1210.24890	1424.92859	266.84245	779.62457	86.81954	268.31069	1090.96576	91.58434	247.91341	795.41876	484.46489	248.48004	1063.80365	491.75621	246.47096	997.96362	977.74768	243.95679	873.35422	979.86356 
113	0.560	116.55658	930.85461	1728.81348	286.04105	852.85480	1696.51868	241.72334	1005.86395	1725.34570	2013.76575	2007.88916	28.05808	1903.38867	-212.65591	23.74490	156.41678	1062.55798	969.78198	346.00092	958.54144	977.15845	343.52872	916.23291	973.07483	151.39861	813.32886	973.99823	336.64856	933.45306	985.80408	319.31528	924.58508	1480.65906	163.01187	925.13422	1432.28662	331.17181	934.59448	1169.23401	298.93307	1086.22852	1467.19543	285.40863	764.03235	1461.19202	220.53563	732.67987	813.37701	187.87619	732.71167	790.64264	235.23080	724.23059	774.44495	189.99863	724.39771	726.21765	260.30923	743.27917	499.33524	235.51729	847.58081	469.59161	319.21896	731.10248	416.50699	295.46164	714.78156	378.07196	342.59567	727.89539	366.67661	308.66553	709.81207	313.88870	251.77342	822.16803	96.78244	282.04117	736.72687	76.69729	331.20004	786.22052	35.49652	111.26559	775.06921	41.02262	155.16331	703.81360	29.48638	128.79201	724.58350	33.59060	207.48508	1143.47815	817.28265	208.12646	1148.95447	784.77972	160.98584	1130.48779	781.58557	187.47148	1146.12805	721.66351	255.23976	1124.51636	500.66040	241.72537	1003.09857	482.85471	306.05032	1136.81873	433.07220	339.30881	1142.51782	382.92090	289.09567	1154.42285	385.62894	311.95432	1155.53076	323.85870	287.92480	1132.23401	82.87971	248.70496	1049.70947	100.29521	328.37061	1073.69946	33.23211	172.47186	1181.87952	28.90682	119.21615	1119.18274	45.82833	130.74092	1159.87329	35.01504				272.04968	489.62369	1394.56921	304.65457	564.08643	1388.29675	323.33325	623.03363	1381.02380	297.28021	635.52264	1421.82251	226.27414	232.77507	1363.73999	167.65765	247.59525	1341.37207	157.53966	153.33984	1351.21533	246.08939	1608.01489	1395.42883	195.92554	1592.71448	1400.29919	180.32906	1697.77039	1400.08301	231.78046	1357.86340	1298.96985	283.32538	1363.50391	1401.58411	320.42911	1267.14905	1399.73389	285.44955	1284.51538	1431.47681	314.38019	1210.24316	1424.92822	266.90730	779.44745	86.73986	268.31488	1090.97174	91.58746	247.91326	795.42999	484.46342	248.48257	1063.80746	491.75755	246.53267	998.00552	977.79303	244.02358	873.39096	979.90115 
114	0.565	116.56641	930.90253	1728.82593	286.04349	852.85907	1696.51575	241.75095	1005.89496	1725.33667	2013.79895	2007.85107	28.03175	1903.38098	-212.67224	23.74710	156.39825	1062.57703	969.77655	345.90802	958.57782	977.16949	343.52182	916.24896	973.07611	151.38577	813.34735	973.99170	336.46918	933.40619	985.71289	319.31870	924.58087	1480.65808	162.99690	925.12573	1432.28198	331.15720	934.59540	1169.24280	298.92163	1086.22412	1467.19373	285.39194	764.03363	1461.18872	220.51788	732.69067	813.38379	187.88203	732.72968	790.61444	235.11742	724.33386	774.41113	189.97217	724.43542	726.21527	260.31436	743.28851	499.33136	235.27052	847.84387	469.62671	319.22437	731.10760	416.51572	295.47592	714.77191	378.07800	342.60593	727.92188	366.64352	308.76416	710.81842	313.65863	251.72212	822.70270	97.12289	282.05322	736.71912	76.70300	331.20416	786.22778	35.49911	111.27049	775.07373	41.01670	155.16257	703.82343	29.47969	128.86078	724.66669	33.43366	207.47926	1143.49536	817.28271	208.12526	1148.96106	784.78278	160.98064	1130.49890	781.58038	187.38268	1146.14844	721.68457	255.25179	1124.52905	500.66071	241.72516	1003.10638	482.85498	306.05756	1136.82166	433.07016	339.32794	1142.52832	382.93219	289.11478	1154.43091	385.63126	311.95572	1155.55542	323.84521	287.92682	1132.22949	82.87682	248.69951	1049.70837	100.28450	328.37616	1073.70605	33.22984	172.46356	1181.87146	28.89454	119.22159	1119.17773	45.82137	130.73967	1159.88354	35.03340				272.03885	489.62003	1394.55493	304.65280	564.07843	1388.27209	323.31229	623.03473	1381.00806	297.26657	635.51001	1421.80359	226.29953	232.77931	1363.69189	167.68312	247.59622	1341.31567	157.56387	153.32242	1351.12732	246.12759	1608.02832	1395.44592	195.97234	1592.72290	1400.32800	180.41495	1697.79102	1400.10815	231.75198	1357.89233	1299.12378	283.22946	1363.44592	1401.45813	320.43289	1267.13757	1399.74109	285.45044	1284.50195	1431.47949	314.37701	1210.22888	1424.92798	266.88767	779.71091	86.91294	268.31316	1090.96893	91.58066	247.79244	795.56619	484.47903	248.48847	1063.81772	491.75784	246.43372	997.99161	977.74472	243.92747	873.37677	979.85229 
